# Blender v2.79 (sub 0) OBJ File: ''
# www.blender.org
mtllib plane.mtl
o Plane
v 0.000000 0.000000 0.000000
v 0.000000 0.000000 0.125000
v 0.000000 0.000000 0.250000
v 0.000000 0.000000 0.375000
v 0.000000 0.000000 0.500000
v 0.000000 0.000000 0.625000
v 0.000000 0.000000 0.750000
v 0.000000 0.000000 0.875000
v 0.125000 0.000000 0.000000
v 0.250000 0.000000 0.000000
v 0.375000 0.000000 0.000000
v 0.500000 0.000000 0.000000
v 0.625000 0.000000 0.000000
v 0.750000 0.000000 0.000000
v 0.875000 0.000000 0.000000
v 0.000000 0.000000 -0.125000
v 0.000000 0.000000 -0.250000
v 0.000000 0.000000 -0.375000
v 0.000000 0.000000 -0.500000
v 0.000000 0.000000 -0.625000
v 0.000000 0.000000 -0.750000
v 0.000000 0.000000 -0.875000
v -0.125000 0.000000 0.000000
v -0.250000 0.000000 0.000000
v -0.375000 0.000000 0.000000
v -0.500000 0.000000 0.000000
v -0.625000 0.000000 0.000000
v -0.750000 0.000000 0.000000
v -0.875000 0.000000 0.000000
v -0.125000 0.000000 0.125000
v -0.125000 0.000000 0.250000
v -0.125000 0.000000 0.375000
v -0.125000 0.000000 0.500000
v -0.125000 0.000000 0.625000
v -0.125000 0.000000 0.750000
v -0.125000 0.000000 0.875000
v -0.250000 0.000000 0.125000
v -0.250000 0.000000 0.250000
v -0.250000 0.000000 0.375000
v -0.250000 0.000000 0.500000
v -0.250000 0.000000 0.625000
v -0.250000 0.000000 0.750000
v -0.250000 0.000000 0.875000
v -0.375000 0.000000 0.125000
v -0.375000 0.000000 0.250000
v -0.375000 0.000000 0.375000
v -0.375000 0.000000 0.500000
v -0.375000 0.000000 0.625000
v -0.375000 0.000000 0.750000
v -0.375000 0.000000 0.875000
v -0.500000 0.000000 0.125000
v -0.500000 0.000000 0.250000
v -0.500000 0.000000 0.375000
v -0.500000 0.000000 0.500000
v -0.500000 0.000000 0.625000
v -0.500000 0.000000 0.750000
v -0.500000 0.000000 0.875000
v -0.625000 0.000000 0.125000
v -0.625000 0.000000 0.250000
v -0.625000 0.000000 0.375000
v -0.625000 0.000000 0.500000
v -0.625000 0.000000 0.625000
v -0.625000 0.000000 0.750000
v -0.625000 0.000000 0.875000
v -0.750000 0.000000 0.125000
v -0.750000 0.000000 0.250000
v -0.750000 0.000000 0.375000
v -0.750000 0.000000 0.500000
v -0.750000 0.000000 0.625000
v -0.750000 0.000000 0.750000
v -0.750000 0.000000 0.875000
v -0.875000 0.000000 0.125000
v -0.875000 0.000000 0.250000
v -0.875000 0.000000 0.375000
v -0.875000 0.000000 0.500000
v -0.875000 0.000000 0.625000
v -0.875000 0.000000 0.750000
v -0.875000 0.000000 0.875000
v 0.125000 0.000000 0.125000
v 0.250000 0.000000 0.125000
v 0.375000 0.000000 0.125000
v 0.500000 0.000000 0.125000
v 0.625000 0.000000 0.125000
v 0.750000 0.000000 0.125000
v 0.875000 0.000000 0.125000
v 0.125000 0.000000 0.250000
v 0.250000 0.000000 0.250000
v 0.375000 0.000000 0.250000
v 0.500000 0.000000 0.250000
v 0.625000 0.000000 0.250000
v 0.750000 0.000000 0.250000
v 0.875000 0.000000 0.250000
v 0.125000 0.000000 0.375000
v 0.250000 0.000000 0.375000
v 0.375000 0.000000 0.375000
v 0.500000 0.000000 0.375000
v 0.625000 0.000000 0.375000
v 0.750000 0.000000 0.375000
v 0.875000 0.000000 0.375000
v 0.125000 0.000000 0.500000
v 0.250000 0.000000 0.500000
v 0.375000 0.000000 0.500000
v 0.500000 0.000000 0.500000
v 0.625000 0.000000 0.500000
v 0.750000 0.000000 0.500000
v 0.875000 0.000000 0.500000
v 0.125000 0.000000 0.625000
v 0.250000 0.000000 0.625000
v 0.375000 0.000000 0.625000
v 0.500000 0.000000 0.625000
v 0.625000 0.000000 0.625000
v 0.750000 0.000000 0.625000
v 0.875000 0.000000 0.625000
v 0.125000 0.000000 0.750000
v 0.250000 0.000000 0.750000
v 0.375000 0.000000 0.750000
v 0.500000 0.000000 0.750000
v 0.625000 0.000000 0.750000
v 0.750000 0.000000 0.750000
v 0.875000 0.000000 0.750000
v 0.125000 0.000000 0.875000
v 0.250000 0.000000 0.875000
v 0.375000 0.000000 0.875000
v 0.500000 0.000000 0.875000
v 0.625000 0.000000 0.875000
v 0.750000 0.000000 0.875000
v 0.875000 0.000000 0.875000
v 0.125000 0.000000 -0.125000
v 0.125000 0.000000 -0.250000
v 0.125000 0.000000 -0.375000
v 0.125000 0.000000 -0.500000
v 0.125000 0.000000 -0.625000
v 0.125000 0.000000 -0.750000
v 0.125000 0.000000 -0.875000
v 0.250000 0.000000 -0.125000
v 0.250000 0.000000 -0.250000
v 0.250000 0.000000 -0.375000
v 0.250000 0.000000 -0.500000
v 0.250000 0.000000 -0.625000
v 0.250000 0.000000 -0.750000
v 0.250000 0.000000 -0.875000
v 0.375000 0.000000 -0.125000
v 0.375000 0.000000 -0.250000
v 0.375000 0.000000 -0.375000
v 0.375000 0.000000 -0.500000
v 0.375000 0.000000 -0.625000
v 0.375000 0.000000 -0.750000
v 0.375000 0.000000 -0.875000
v 0.500000 0.000000 -0.125000
v 0.500000 0.000000 -0.250000
v 0.500000 0.000000 -0.375000
v 0.500000 0.000000 -0.500000
v 0.500000 0.000000 -0.625000
v 0.500000 0.000000 -0.750000
v 0.500000 0.000000 -0.875000
v 0.625000 0.000000 -0.125000
v 0.625000 0.000000 -0.250000
v 0.625000 0.000000 -0.375000
v 0.625000 0.000000 -0.500000
v 0.625000 0.000000 -0.625000
v 0.625000 0.000000 -0.750000
v 0.625000 0.000000 -0.875000
v 0.750000 0.000000 -0.125000
v 0.750000 0.000000 -0.250000
v 0.750000 0.000000 -0.375000
v 0.750000 0.000000 -0.500000
v 0.750000 0.000000 -0.625000
v 0.750000 0.000000 -0.750000
v 0.750000 0.000000 -0.875000
v 0.875000 0.000000 -0.125000
v 0.875000 0.000000 -0.250000
v 0.875000 0.000000 -0.375000
v 0.875000 0.000000 -0.500000
v 0.875000 0.000000 -0.625000
v 0.875000 0.000000 -0.750000
v 0.875000 0.000000 -0.875000
v -0.125000 0.000000 -0.125000
v -0.250000 0.000000 -0.125000
v -0.375000 0.000000 -0.125000
v -0.500000 0.000000 -0.125000
v -0.625000 0.000000 -0.125000
v -0.750000 0.000000 -0.125000
v -0.875000 0.000000 -0.125000
v -0.125000 0.000000 -0.250000
v -0.250000 0.000000 -0.250000
v -0.375000 0.000000 -0.250000
v -0.500000 0.000000 -0.250000
v -0.625000 0.000000 -0.250000
v -0.750000 0.000000 -0.250000
v -0.875000 0.000000 -0.250000
v -0.125000 0.000000 -0.375000
v -0.250000 0.000000 -0.375000
v -0.375000 0.000000 -0.375000
v -0.500000 0.000000 -0.375000
v -0.625000 0.000000 -0.375000
v -0.750000 0.000000 -0.375000
v -0.875000 0.000000 -0.375000
v -0.125000 0.000000 -0.500000
v -0.250000 0.000000 -0.500000
v -0.375000 0.000000 -0.500000
v -0.500000 0.000000 -0.500000
v -0.625000 0.000000 -0.500000
v -0.750000 0.000000 -0.500000
v -0.875000 0.000000 -0.500000
v -0.125000 0.000000 -0.625000
v -0.250000 0.000000 -0.625000
v -0.375000 0.000000 -0.625000
v -0.500000 0.000000 -0.625000
v -0.625000 0.000000 -0.625000
v -0.750000 0.000000 -0.625000
v -0.875000 0.000000 -0.625000
v -0.125000 0.000000 -0.750000
v -0.250000 0.000000 -0.750000
v -0.375000 0.000000 -0.750000
v -0.500000 0.000000 -0.750000
v -0.625000 0.000000 -0.750000
v -0.750000 0.000000 -0.750000
v -0.875000 0.000000 -0.750000
v -0.125000 0.000000 -0.875000
v -0.250000 0.000000 -0.875000
v -0.375000 0.000000 -0.875000
v -0.500000 0.000000 -0.875000
v -0.625000 0.000000 -0.875000
v -0.750000 0.000000 -0.875000
v -0.875000 0.000000 -0.875000
v -1.000000 0.000000 -0.875000
v -1.000000 0.000000 -0.750000
v -1.000000 0.000000 -0.625000
v -1.000000 0.000000 -0.500000
v -1.000000 0.000000 -0.375000
v -1.000000 0.000000 -0.250000
v -1.000000 0.000000 -0.125000
v -1.000000 0.000000 0.000000
v -1.000000 0.000000 0.125000
v -1.000000 0.000000 0.250000
v -1.000000 0.000000 0.375000
v -1.000000 0.000000 0.500000
v -1.000000 0.000000 0.625000
v -1.000000 0.000000 0.750000
v -1.000000 0.000000 0.875000
v -0.875000 0.000000 1.000000
v -0.750000 0.000000 1.000000
v -0.625000 0.000000 1.000000
v -0.500000 0.000000 1.000000
v -0.375000 0.000000 1.000000
v -0.250000 0.000000 1.000000
v -0.125000 0.000000 1.000000
v 0.000000 0.000000 1.000000
v 0.125000 0.000000 1.000000
v 0.250000 0.000000 1.000000
v 0.375000 0.000000 1.000000
v 0.500000 0.000000 1.000000
v 0.625000 0.000000 1.000000
v 0.750000 0.000000 1.000000
v 0.875000 0.000000 1.000000
v 1.000000 0.000000 0.875000
v 1.000000 0.000000 0.750000
v 1.000000 0.000000 0.625000
v 1.000000 0.000000 0.500000
v 1.000000 0.000000 0.375000
v 1.000000 0.000000 0.250000
v 1.000000 0.000000 0.125000
v 1.000000 0.000000 0.000000
v 1.000000 0.000000 -0.125000
v 1.000000 0.000000 -0.250000
v 1.000000 0.000000 -0.375000
v 1.000000 0.000000 -0.500000
v 1.000000 0.000000 -0.625000
v 1.000000 0.000000 -0.750000
v 1.000000 0.000000 -0.875000
v 0.875000 0.000000 -1.000000
v 0.750000 0.000000 -1.000000
v 0.625000 0.000000 -1.000000
v 0.500000 0.000000 -1.000000
v 0.375000 0.000000 -1.000000
v 0.250000 0.000000 -1.000000
v 0.125000 0.000000 -1.000000
v 0.000000 0.000000 -1.000000
v -0.125000 0.000000 -1.000000
v -0.250000 0.000000 -1.000000
v -0.375000 0.000000 -1.000000
v -0.500000 0.000000 -1.000000
v -0.625000 0.000000 -1.000000
v -0.750000 0.000000 -1.000000
v -0.875000 0.000000 -1.000000
v -1.000000 0.000000 1.000000
v 1.000000 0.000000 1.000000
v -1.000000 0.000000 -1.000000
v 1.000000 0.000000 -1.000000
vt 0.500000 0.500000
vt 0.437513 0.500000
vt 0.437513 0.437512
vt 0.500000 0.437512
vt 0.437513 0.375025
vt 0.500000 0.375025
vt 0.437513 0.312537
vt 0.500000 0.312537
vt 0.437513 0.250050
vt 0.500000 0.250050
vt 0.437513 0.187562
vt 0.500000 0.187562
vt 0.437513 0.125075
vt 0.500000 0.125075
vt 0.437513 0.062587
vt 0.500000 0.062587
vt 0.437513 0.000100
vt 0.500000 0.000100
vt 0.375025 0.500000
vt 0.375025 0.437512
vt 0.375025 0.375025
vt 0.375025 0.312537
vt 0.375025 0.250050
vt 0.375025 0.187562
vt 0.375025 0.125075
vt 0.375025 0.062587
vt 0.375025 0.000100
vt 0.312538 0.500000
vt 0.312538 0.437512
vt 0.312538 0.375025
vt 0.312538 0.312537
vt 0.312538 0.250050
vt 0.312538 0.187562
vt 0.312538 0.125075
vt 0.312538 0.062587
vt 0.312538 0.000100
vt 0.250050 0.500000
vt 0.250050 0.437512
vt 0.250050 0.375025
vt 0.250050 0.312537
vt 0.250050 0.250050
vt 0.250050 0.187562
vt 0.250050 0.125075
vt 0.250050 0.062587
vt 0.250050 0.000100
vt 0.187563 0.500000
vt 0.187562 0.437512
vt 0.187562 0.375025
vt 0.187562 0.312537
vt 0.187562 0.250050
vt 0.187562 0.187562
vt 0.187563 0.125075
vt 0.187563 0.062587
vt 0.187563 0.000100
vt 0.125075 0.500000
vt 0.125075 0.437512
vt 0.125075 0.375025
vt 0.125075 0.312537
vt 0.125075 0.250050
vt 0.125075 0.187562
vt 0.125075 0.125075
vt 0.125075 0.062587
vt 0.125075 0.000100
vt 0.062588 0.500000
vt 0.062588 0.437512
vt 0.062588 0.375025
vt 0.062588 0.312537
vt 0.062588 0.250050
vt 0.062588 0.187562
vt 0.062588 0.125075
vt 0.062588 0.062587
vt 0.062588 0.000100
vt 0.000100 0.500000
vt 0.000100 0.437512
vt 0.000100 0.375025
vt 0.000100 0.312537
vt 0.000100 0.250050
vt 0.000100 0.187562
vt 0.000100 0.125075
vt 0.000100 0.062587
vt 0.000100 0.000100
vt 0.562487 0.437513
vt 0.562487 0.500000
vt 0.624975 0.437513
vt 0.624975 0.500000
vt 0.687463 0.437513
vt 0.687463 0.500000
vt 0.749950 0.437512
vt 0.749950 0.500000
vt 0.812438 0.437513
vt 0.812438 0.500000
vt 0.874925 0.437512
vt 0.874925 0.500000
vt 0.937413 0.437513
vt 0.937413 0.500000
vt 0.999900 0.437512
vt 0.999900 0.500000
vt 0.562487 0.375025
vt 0.624975 0.375025
vt 0.687463 0.375025
vt 0.749950 0.375025
vt 0.812438 0.375025
vt 0.874925 0.375025
vt 0.937413 0.375025
vt 0.999900 0.375025
vt 0.562487 0.312537
vt 0.624975 0.312537
vt 0.687463 0.312537
vt 0.749950 0.312537
vt 0.812438 0.312537
vt 0.874925 0.312537
vt 0.937413 0.312537
vt 0.999900 0.312537
vt 0.562487 0.250050
vt 0.624975 0.250050
vt 0.687463 0.250050
vt 0.749950 0.250050
vt 0.812438 0.250050
vt 0.874925 0.250050
vt 0.937413 0.250050
vt 0.999900 0.250050
vt 0.562487 0.187562
vt 0.624975 0.187562
vt 0.687463 0.187562
vt 0.749950 0.187562
vt 0.812438 0.187562
vt 0.874925 0.187562
vt 0.937413 0.187562
vt 0.999900 0.187562
vt 0.562487 0.125075
vt 0.624975 0.125075
vt 0.687463 0.125075
vt 0.749950 0.125075
vt 0.812438 0.125075
vt 0.874925 0.125075
vt 0.937413 0.125075
vt 0.999900 0.125075
vt 0.562488 0.062587
vt 0.624975 0.062587
vt 0.687463 0.062587
vt 0.749950 0.062587
vt 0.812438 0.062587
vt 0.874925 0.062587
vt 0.937413 0.062587
vt 0.999900 0.062587
vt 0.562488 0.000100
vt 0.624975 0.000100
vt 0.687463 0.000100
vt 0.749950 0.000100
vt 0.812438 0.000100
vt 0.874925 0.000100
vt 0.937413 0.000100
vt 0.999900 0.000100
vt 0.562487 0.562487
vt 0.500000 0.562487
vt 0.562487 0.624975
vt 0.500000 0.624975
vt 0.562487 0.687463
vt 0.500000 0.687463
vt 0.562487 0.749950
vt 0.500000 0.749950
vt 0.562487 0.812438
vt 0.500000 0.812438
vt 0.562487 0.874925
vt 0.500000 0.874925
vt 0.562487 0.937413
vt 0.500000 0.937413
vt 0.562487 0.999900
vt 0.500000 0.999900
vt 0.624975 0.562487
vt 0.624975 0.624975
vt 0.624975 0.687463
vt 0.624975 0.749950
vt 0.624975 0.812438
vt 0.624975 0.874925
vt 0.624975 0.937413
vt 0.624975 0.999900
vt 0.687463 0.562487
vt 0.687463 0.624975
vt 0.687463 0.687463
vt 0.687463 0.749950
vt 0.687463 0.812438
vt 0.687463 0.874925
vt 0.687463 0.937413
vt 0.687463 0.999900
vt 0.749950 0.562487
vt 0.749950 0.624975
vt 0.749950 0.687463
vt 0.749950 0.749950
vt 0.749950 0.812438
vt 0.749950 0.874925
vt 0.749950 0.937413
vt 0.749950 0.999900
vt 0.812438 0.562487
vt 0.812438 0.624975
vt 0.812438 0.687463
vt 0.812438 0.749950
vt 0.812438 0.812438
vt 0.812438 0.874925
vt 0.812438 0.937413
vt 0.812438 0.999900
vt 0.874925 0.562487
vt 0.874925 0.624975
vt 0.874925 0.687463
vt 0.874925 0.749950
vt 0.874925 0.812438
vt 0.874925 0.874925
vt 0.874925 0.937413
vt 0.874925 0.999900
vt 0.937413 0.562487
vt 0.937413 0.624975
vt 0.937413 0.687463
vt 0.937413 0.749950
vt 0.937413 0.812438
vt 0.937413 0.874925
vt 0.937413 0.937413
vt 0.937413 0.999900
vt 0.999900 0.562487
vt 0.999900 0.624975
vt 0.999900 0.687463
vt 0.999900 0.749950
vt 0.999900 0.812438
vt 0.999900 0.874925
vt 0.999900 0.937413
vt 0.999900 0.999900
vt 0.437513 0.562487
vt 0.375025 0.562487
vt 0.312538 0.562487
vt 0.250050 0.562487
vt 0.187563 0.562487
vt 0.125075 0.562487
vt 0.062588 0.562487
vt 0.000100 0.562487
vt 0.437513 0.624975
vt 0.375025 0.624975
vt 0.312537 0.624975
vt 0.250050 0.624975
vt 0.187563 0.624975
vt 0.125075 0.624975
vt 0.062588 0.624975
vt 0.000100 0.624975
vt 0.437513 0.687463
vt 0.375025 0.687463
vt 0.312537 0.687463
vt 0.250050 0.687463
vt 0.187563 0.687463
vt 0.125075 0.687463
vt 0.062587 0.687463
vt 0.000100 0.687463
vt 0.437513 0.749950
vt 0.375025 0.749950
vt 0.312537 0.749950
vt 0.250050 0.749950
vt 0.187562 0.749950
vt 0.125075 0.749950
vt 0.062587 0.749950
vt 0.000100 0.749950
vt 0.437513 0.812438
vt 0.375025 0.812438
vt 0.312537 0.812438
vt 0.250050 0.812438
vt 0.187562 0.812438
vt 0.125075 0.812438
vt 0.062587 0.812438
vt 0.000100 0.812438
vt 0.437513 0.874925
vt 0.375025 0.874925
vt 0.312537 0.874925
vt 0.250050 0.874925
vt 0.187562 0.874925
vt 0.125075 0.874925
vt 0.062587 0.874925
vt 0.000100 0.874925
vt 0.437513 0.937413
vt 0.375025 0.937413
vt 0.312537 0.937413
vt 0.250050 0.937413
vt 0.187562 0.937413
vt 0.125075 0.937413
vt 0.062587 0.937413
vt 0.000100 0.937413
vt 0.437512 0.999900
vt 0.375025 0.999900
vt 0.312537 0.999900
vt 0.250050 0.999900
vt 0.187562 0.999900
vt 0.125075 0.999900
vt 0.062587 0.999900
vt 0.000100 0.999900
vn 0.0000 1.0000 0.0000
usemtl None
s off
f 1/1/1 23/2/1 30/3/1 2/4/1
f 2/4/1 30/3/1 31/5/1 3/6/1
f 3/6/1 31/5/1 32/7/1 4/8/1
f 4/8/1 32/7/1 33/9/1 5/10/1
f 5/10/1 33/9/1 34/11/1 6/12/1
f 6/12/1 34/11/1 35/13/1 7/14/1
f 7/14/1 35/13/1 36/15/1 8/16/1
f 8/16/1 36/15/1 247/17/1 248/18/1
f 23/2/1 24/19/1 37/20/1 30/3/1
f 30/3/1 37/20/1 38/21/1 31/5/1
f 31/5/1 38/21/1 39/22/1 32/7/1
f 32/7/1 39/22/1 40/23/1 33/9/1
f 33/9/1 40/23/1 41/24/1 34/11/1
f 34/11/1 41/24/1 42/25/1 35/13/1
f 35/13/1 42/25/1 43/26/1 36/15/1
f 36/15/1 43/26/1 246/27/1 247/17/1
f 24/19/1 25/28/1 44/29/1 37/20/1
f 37/20/1 44/29/1 45/30/1 38/21/1
f 38/21/1 45/30/1 46/31/1 39/22/1
f 39/22/1 46/31/1 47/32/1 40/23/1
f 40/23/1 47/32/1 48/33/1 41/24/1
f 41/24/1 48/33/1 49/34/1 42/25/1
f 42/25/1 49/34/1 50/35/1 43/26/1
f 43/26/1 50/35/1 245/36/1 246/27/1
f 25/28/1 26/37/1 51/38/1 44/29/1
f 44/29/1 51/38/1 52/39/1 45/30/1
f 45/30/1 52/39/1 53/40/1 46/31/1
f 46/31/1 53/40/1 54/41/1 47/32/1
f 47/32/1 54/41/1 55/42/1 48/33/1
f 48/33/1 55/42/1 56/43/1 49/34/1
f 49/34/1 56/43/1 57/44/1 50/35/1
f 50/35/1 57/44/1 244/45/1 245/36/1
f 26/37/1 27/46/1 58/47/1 51/38/1
f 51/38/1 58/47/1 59/48/1 52/39/1
f 52/39/1 59/48/1 60/49/1 53/40/1
f 53/40/1 60/49/1 61/50/1 54/41/1
f 54/41/1 61/50/1 62/51/1 55/42/1
f 55/42/1 62/51/1 63/52/1 56/43/1
f 56/43/1 63/52/1 64/53/1 57/44/1
f 57/44/1 64/53/1 243/54/1 244/45/1
f 27/46/1 28/55/1 65/56/1 58/47/1
f 58/47/1 65/56/1 66/57/1 59/48/1
f 59/48/1 66/57/1 67/58/1 60/49/1
f 60/49/1 67/58/1 68/59/1 61/50/1
f 61/50/1 68/59/1 69/60/1 62/51/1
f 62/51/1 69/60/1 70/61/1 63/52/1
f 63/52/1 70/61/1 71/62/1 64/53/1
f 64/53/1 71/62/1 242/63/1 243/54/1
f 28/55/1 29/64/1 72/65/1 65/56/1
f 65/56/1 72/65/1 73/66/1 66/57/1
f 66/57/1 73/66/1 74/67/1 67/58/1
f 67/58/1 74/67/1 75/68/1 68/59/1
f 68/59/1 75/68/1 76/69/1 69/60/1
f 69/60/1 76/69/1 77/70/1 70/61/1
f 70/61/1 77/70/1 78/71/1 71/62/1
f 71/62/1 78/71/1 241/72/1 242/63/1
f 29/64/1 233/73/1 234/74/1 72/65/1
f 72/65/1 234/74/1 235/75/1 73/66/1
f 73/66/1 235/75/1 236/76/1 74/67/1
f 74/67/1 236/76/1 237/77/1 75/68/1
f 75/68/1 237/77/1 238/78/1 76/69/1
f 76/69/1 238/78/1 239/79/1 77/70/1
f 77/70/1 239/79/1 240/80/1 78/71/1
f 78/71/1 240/80/1 286/81/1 241/72/1
f 1/1/1 2/4/1 79/82/1 9/83/1
f 9/83/1 79/82/1 80/84/1 10/85/1
f 10/85/1 80/84/1 81/86/1 11/87/1
f 11/87/1 81/86/1 82/88/1 12/89/1
f 12/89/1 82/88/1 83/90/1 13/91/1
f 13/91/1 83/90/1 84/92/1 14/93/1
f 14/93/1 84/92/1 85/94/1 15/95/1
f 15/95/1 85/94/1 262/96/1 263/97/1
f 2/4/1 3/6/1 86/98/1 79/82/1
f 79/82/1 86/98/1 87/99/1 80/84/1
f 80/84/1 87/99/1 88/100/1 81/86/1
f 81/86/1 88/100/1 89/101/1 82/88/1
f 82/88/1 89/101/1 90/102/1 83/90/1
f 83/90/1 90/102/1 91/103/1 84/92/1
f 84/92/1 91/103/1 92/104/1 85/94/1
f 85/94/1 92/104/1 261/105/1 262/96/1
f 3/6/1 4/8/1 93/106/1 86/98/1
f 86/98/1 93/106/1 94/107/1 87/99/1
f 87/99/1 94/107/1 95/108/1 88/100/1
f 88/100/1 95/108/1 96/109/1 89/101/1
f 89/101/1 96/109/1 97/110/1 90/102/1
f 90/102/1 97/110/1 98/111/1 91/103/1
f 91/103/1 98/111/1 99/112/1 92/104/1
f 92/104/1 99/112/1 260/113/1 261/105/1
f 4/8/1 5/10/1 100/114/1 93/106/1
f 93/106/1 100/114/1 101/115/1 94/107/1
f 94/107/1 101/115/1 102/116/1 95/108/1
f 95/108/1 102/116/1 103/117/1 96/109/1
f 96/109/1 103/117/1 104/118/1 97/110/1
f 97/110/1 104/118/1 105/119/1 98/111/1
f 98/111/1 105/119/1 106/120/1 99/112/1
f 99/112/1 106/120/1 259/121/1 260/113/1
f 5/10/1 6/12/1 107/122/1 100/114/1
f 100/114/1 107/122/1 108/123/1 101/115/1
f 101/115/1 108/123/1 109/124/1 102/116/1
f 102/116/1 109/124/1 110/125/1 103/117/1
f 103/117/1 110/125/1 111/126/1 104/118/1
f 104/118/1 111/126/1 112/127/1 105/119/1
f 105/119/1 112/127/1 113/128/1 106/120/1
f 106/120/1 113/128/1 258/129/1 259/121/1
f 6/12/1 7/14/1 114/130/1 107/122/1
f 107/122/1 114/130/1 115/131/1 108/123/1
f 108/123/1 115/131/1 116/132/1 109/124/1
f 109/124/1 116/132/1 117/133/1 110/125/1
f 110/125/1 117/133/1 118/134/1 111/126/1
f 111/126/1 118/134/1 119/135/1 112/127/1
f 112/127/1 119/135/1 120/136/1 113/128/1
f 113/128/1 120/136/1 257/137/1 258/129/1
f 7/14/1 8/16/1 121/138/1 114/130/1
f 114/130/1 121/138/1 122/139/1 115/131/1
f 115/131/1 122/139/1 123/140/1 116/132/1
f 116/132/1 123/140/1 124/141/1 117/133/1
f 117/133/1 124/141/1 125/142/1 118/134/1
f 118/134/1 125/142/1 126/143/1 119/135/1
f 119/135/1 126/143/1 127/144/1 120/136/1
f 120/136/1 127/144/1 256/145/1 257/137/1
f 8/16/1 248/18/1 249/146/1 121/138/1
f 121/138/1 249/146/1 250/147/1 122/139/1
f 122/139/1 250/147/1 251/148/1 123/140/1
f 123/140/1 251/148/1 252/149/1 124/141/1
f 124/141/1 252/149/1 253/150/1 125/142/1
f 125/142/1 253/150/1 254/151/1 126/143/1
f 126/143/1 254/151/1 255/152/1 127/144/1
f 127/144/1 255/152/1 287/153/1 256/145/1
f 1/1/1 9/83/1 128/154/1 16/155/1
f 16/155/1 128/154/1 129/156/1 17/157/1
f 17/157/1 129/156/1 130/158/1 18/159/1
f 18/159/1 130/158/1 131/160/1 19/161/1
f 19/161/1 131/160/1 132/162/1 20/163/1
f 20/163/1 132/162/1 133/164/1 21/165/1
f 21/165/1 133/164/1 134/166/1 22/167/1
f 22/167/1 134/166/1 277/168/1 278/169/1
f 9/83/1 10/85/1 135/170/1 128/154/1
f 128/154/1 135/170/1 136/171/1 129/156/1
f 129/156/1 136/171/1 137/172/1 130/158/1
f 130/158/1 137/172/1 138/173/1 131/160/1
f 131/160/1 138/173/1 139/174/1 132/162/1
f 132/162/1 139/174/1 140/175/1 133/164/1
f 133/164/1 140/175/1 141/176/1 134/166/1
f 134/166/1 141/176/1 276/177/1 277/168/1
f 10/85/1 11/87/1 142/178/1 135/170/1
f 135/170/1 142/178/1 143/179/1 136/171/1
f 136/171/1 143/179/1 144/180/1 137/172/1
f 137/172/1 144/180/1 145/181/1 138/173/1
f 138/173/1 145/181/1 146/182/1 139/174/1
f 139/174/1 146/182/1 147/183/1 140/175/1
f 140/175/1 147/183/1 148/184/1 141/176/1
f 141/176/1 148/184/1 275/185/1 276/177/1
f 11/87/1 12/89/1 149/186/1 142/178/1
f 142/178/1 149/186/1 150/187/1 143/179/1
f 143/179/1 150/187/1 151/188/1 144/180/1
f 144/180/1 151/188/1 152/189/1 145/181/1
f 145/181/1 152/189/1 153/190/1 146/182/1
f 146/182/1 153/190/1 154/191/1 147/183/1
f 147/183/1 154/191/1 155/192/1 148/184/1
f 148/184/1 155/192/1 274/193/1 275/185/1
f 12/89/1 13/91/1 156/194/1 149/186/1
f 149/186/1 156/194/1 157/195/1 150/187/1
f 150/187/1 157/195/1 158/196/1 151/188/1
f 151/188/1 158/196/1 159/197/1 152/189/1
f 152/189/1 159/197/1 160/198/1 153/190/1
f 153/190/1 160/198/1 161/199/1 154/191/1
f 154/191/1 161/199/1 162/200/1 155/192/1
f 155/192/1 162/200/1 273/201/1 274/193/1
f 13/91/1 14/93/1 163/202/1 156/194/1
f 156/194/1 163/202/1 164/203/1 157/195/1
f 157/195/1 164/203/1 165/204/1 158/196/1
f 158/196/1 165/204/1 166/205/1 159/197/1
f 159/197/1 166/205/1 167/206/1 160/198/1
f 160/198/1 167/206/1 168/207/1 161/199/1
f 161/199/1 168/207/1 169/208/1 162/200/1
f 162/200/1 169/208/1 272/209/1 273/201/1
f 14/93/1 15/95/1 170/210/1 163/202/1
f 163/202/1 170/210/1 171/211/1 164/203/1
f 164/203/1 171/211/1 172/212/1 165/204/1
f 165/204/1 172/212/1 173/213/1 166/205/1
f 166/205/1 173/213/1 174/214/1 167/206/1
f 167/206/1 174/214/1 175/215/1 168/207/1
f 168/207/1 175/215/1 176/216/1 169/208/1
f 169/208/1 176/216/1 271/217/1 272/209/1
f 15/95/1 263/97/1 264/218/1 170/210/1
f 170/210/1 264/218/1 265/219/1 171/211/1
f 171/211/1 265/219/1 266/220/1 172/212/1
f 172/212/1 266/220/1 267/221/1 173/213/1
f 173/213/1 267/221/1 268/222/1 174/214/1
f 174/214/1 268/222/1 269/223/1 175/215/1
f 175/215/1 269/223/1 270/224/1 176/216/1
f 176/216/1 270/224/1 289/225/1 271/217/1
f 1/1/1 16/155/1 177/226/1 23/2/1
f 23/2/1 177/226/1 178/227/1 24/19/1
f 24/19/1 178/227/1 179/228/1 25/28/1
f 25/28/1 179/228/1 180/229/1 26/37/1
f 26/37/1 180/229/1 181/230/1 27/46/1
f 27/46/1 181/230/1 182/231/1 28/55/1
f 28/55/1 182/231/1 183/232/1 29/64/1
f 29/64/1 183/232/1 232/233/1 233/73/1
f 16/155/1 17/157/1 184/234/1 177/226/1
f 177/226/1 184/234/1 185/235/1 178/227/1
f 178/227/1 185/235/1 186/236/1 179/228/1
f 179/228/1 186/236/1 187/237/1 180/229/1
f 180/229/1 187/237/1 188/238/1 181/230/1
f 181/230/1 188/238/1 189/239/1 182/231/1
f 182/231/1 189/239/1 190/240/1 183/232/1
f 183/232/1 190/240/1 231/241/1 232/233/1
f 17/157/1 18/159/1 191/242/1 184/234/1
f 184/234/1 191/242/1 192/243/1 185/235/1
f 185/235/1 192/243/1 193/244/1 186/236/1
f 186/236/1 193/244/1 194/245/1 187/237/1
f 187/237/1 194/245/1 195/246/1 188/238/1
f 188/238/1 195/246/1 196/247/1 189/239/1
f 189/239/1 196/247/1 197/248/1 190/240/1
f 190/240/1 197/248/1 230/249/1 231/241/1
f 18/159/1 19/161/1 198/250/1 191/242/1
f 191/242/1 198/250/1 199/251/1 192/243/1
f 192/243/1 199/251/1 200/252/1 193/244/1
f 193/244/1 200/252/1 201/253/1 194/245/1
f 194/245/1 201/253/1 202/254/1 195/246/1
f 195/246/1 202/254/1 203/255/1 196/247/1
f 196/247/1 203/255/1 204/256/1 197/248/1
f 197/248/1 204/256/1 229/257/1 230/249/1
f 19/161/1 20/163/1 205/258/1 198/250/1
f 198/250/1 205/258/1 206/259/1 199/251/1
f 199/251/1 206/259/1 207/260/1 200/252/1
f 200/252/1 207/260/1 208/261/1 201/253/1
f 201/253/1 208/261/1 209/262/1 202/254/1
f 202/254/1 209/262/1 210/263/1 203/255/1
f 203/255/1 210/263/1 211/264/1 204/256/1
f 204/256/1 211/264/1 228/265/1 229/257/1
f 20/163/1 21/165/1 212/266/1 205/258/1
f 205/258/1 212/266/1 213/267/1 206/259/1
f 206/259/1 213/267/1 214/268/1 207/260/1
f 207/260/1 214/268/1 215/269/1 208/261/1
f 208/261/1 215/269/1 216/270/1 209/262/1
f 209/262/1 216/270/1 217/271/1 210/263/1
f 210/263/1 217/271/1 218/272/1 211/264/1
f 211/264/1 218/272/1 227/273/1 228/265/1
f 21/165/1 22/167/1 219/274/1 212/266/1
f 212/266/1 219/274/1 220/275/1 213/267/1
f 213/267/1 220/275/1 221/276/1 214/268/1
f 214/268/1 221/276/1 222/277/1 215/269/1
f 215/269/1 222/277/1 223/278/1 216/270/1
f 216/270/1 223/278/1 224/279/1 217/271/1
f 217/271/1 224/279/1 225/280/1 218/272/1
f 218/272/1 225/280/1 226/281/1 227/273/1
f 22/167/1 278/169/1 279/282/1 219/274/1
f 219/274/1 279/282/1 280/283/1 220/275/1
f 220/275/1 280/283/1 281/284/1 221/276/1
f 221/276/1 281/284/1 282/285/1 222/277/1
f 222/277/1 282/285/1 283/286/1 223/278/1
f 223/278/1 283/286/1 284/287/1 224/279/1
f 224/279/1 284/287/1 285/288/1 225/280/1
f 225/280/1 285/288/1 288/289/1 226/281/1
