# Blender v2.79 (sub 0) OBJ File: ''
# www.blender.org
mtllib TranslationGizmo.mtl
o Cylinder_Cylinder.001
v 0.000000 1.509687 -0.114378
v 0.000000 1.976860 0.000000
v 0.080878 1.509687 -0.080878
v 0.114378 1.509687 0.000000
v 0.080878 1.509687 0.080878
v 0.000000 1.509687 0.114378
v -0.080878 1.509687 0.080878
v -0.114378 1.509687 0.000000
v -0.080878 1.509687 -0.080878
v -0.005056 0.284478 0.005057
v -0.007151 1.509687 0.000000
v -0.005056 1.509687 -0.005056
v 0.000000 1.509687 -0.007151
v 0.005056 1.509687 -0.005056
v 0.007151 1.509687 0.000000
v 0.005056 1.509687 0.005057
v 0.000000 1.509687 0.007151
v -0.005056 1.509687 0.005057
v -0.007151 0.284478 0.000000
v -0.005056 0.284478 -0.005056
v 0.000000 0.284478 -0.007151
v 0.005056 0.284478 -0.005056
v 0.007151 0.284478 0.000000
v 0.005056 0.284478 0.005057
v 0.000000 0.284478 0.007151
vn 0.3732 0.2206 -0.9011
vn 0.9011 0.2206 -0.3732
vn 0.9011 0.2206 0.3732
vn 0.3732 0.2206 0.9011
vn -0.3732 0.2206 0.9011
vn -0.9011 0.2206 0.3732
vn -0.9011 0.2206 -0.3732
vn -0.3732 0.2206 -0.9011
vn -0.4203 -0.8042 0.4203
vn 0.0000 -0.8042 0.5944
vn 0.0000 -1.0000 0.0000
vn -0.4203 -0.8042 -0.4203
vn -0.5944 -0.8042 0.0000
vn 0.0000 -0.8042 -0.5944
vn 0.5944 -0.8042 -0.0000
vn 0.4203 -0.8042 -0.4203
vn 0.4203 -0.8042 0.4203
vn -0.7764 -0.6303 0.0000
vn -0.5490 -0.6303 -0.5490
vn 0.0000 -0.6303 -0.7764
vn 0.5490 -0.6303 -0.5490
vn 0.7764 -0.6303 0.0000
vn 0.5490 -0.6303 0.5490
vn 0.0000 -0.6303 0.7764
vn -0.5490 -0.6303 0.5490
usemtl None
s 1
f 1//1 2//1 3//1
f 3//2 2//2 4//2
f 4//3 2//3 5//3
f 5//4 2//4 6//4
f 6//5 2//5 7//5
f 7//6 2//6 8//6
f 8//7 2//7 9//7
f 9//8 2//8 1//8
f 18//9 17//10 6//11 7//11
f 12//12 11//13 8//11 9//11
f 13//14 12//12 9//11 1//11
f 15//15 14//16 3//11 4//11
f 16//17 15//15 4//11 5//11
f 14//16 13//14 1//11 3//11
f 19//18 20//19 21//20 22//21 23//22 24//23 25//24 10//25
f 17//10 16//17 5//11 6//11
f 15//15 16//17 24//23 23//22
f 11//13 18//9 7//11 8//11
f 13//14 14//16 22//21 21//20
f 11//13 12//12 20//19 19//18
f 16//17 17//10 25//24 24//23
f 14//16 15//15 23//22 22//21
f 12//12 13//14 21//20 20//19
f 18//9 11//13 19//18 10//25
f 17//10 18//9 10//25 25//24
