# Blender v2.79 (sub 0) OBJ File: 'generic_hmd.obj'
# www.blender.org
mtllib VRHMD.mtl
o Cube
v 0.095428 -0.029169 0.021918
v 0.028293 0.051501 -0.007194
v 0.095428 -0.029169 0.006208
v 0.028293 0.051501 -0.023060
v 0.095428 0.027406 0.006208
v 0.095428 0.027406 0.021918
v 0.028293 0.145785 0.055648
v 0.028293 0.131931 0.063379
v 0.028293 0.142645 0.198636
v 0.028293 0.128613 0.191231
v 0.028293 0.026372 0.261625
v 0.028293 0.026883 0.245767
v 0.028293 -0.026446 0.259923
v 0.028293 -0.025935 0.244065
v 0.095428 0.051501 -0.074871
v 0.095428 -0.053263 -0.074871
v 0.095428 -0.053263 0.044617
v 0.095428 0.051501 0.044617
v 0.117741 0.027406 0.123519
v 0.117741 -0.029169 0.123519
v 0.102061 -0.029169 0.124485
v 0.102061 0.027406 0.124485
v 0.101051 0.027406 0.030132
v 0.111972 0.027406 0.026706
v 0.111972 -0.029169 0.026706
v 0.101051 -0.029169 0.030132
v 0.098113 0.027406 0.205446
v 0.098113 -0.029169 0.205446
v 0.085029 -0.029169 0.196750
v 0.085029 0.027406 0.196750
v -0.095428 -0.029169 0.021918
v -0.028293 0.051501 -0.007194
v -0.095428 -0.029169 0.006208
v -0.028293 0.051501 -0.023060
v -0.095428 0.027406 0.006208
v -0.095428 0.027406 0.021918
v -0.028293 0.145785 0.055648
v -0.028293 0.131931 0.063379
v -0.028293 0.142645 0.198636
v -0.028293 0.128613 0.191231
v -0.028293 0.026372 0.261625
v -0.028293 0.026883 0.245767
v -0.028293 -0.026446 0.259923
v -0.028293 -0.025935 0.244065
v -0.095428 0.051501 -0.074871
v -0.095428 -0.053263 -0.074871
v -0.095428 -0.053263 0.044617
v -0.095428 0.051501 0.044617
v -0.117741 0.027406 0.123519
v -0.117741 -0.029169 0.123519
v -0.102061 -0.029169 0.124485
v -0.102061 0.027406 0.124485
v -0.101051 0.027406 0.030132
v -0.111972 0.027406 0.026706
v -0.111972 -0.029169 0.026706
v -0.101051 -0.029169 0.030132
v -0.098113 0.027406 0.205446
v -0.098113 -0.029169 0.205446
v -0.085029 -0.029169 0.196750
v -0.085029 0.027406 0.196750
vn 0.0000 1.0000 0.0000
vn 0.0000 0.0000 1.0000
vn 1.0000 -0.0000 0.0000
vn 0.0000 -1.0000 0.0000
vn 0.0000 0.6408 -0.7677
vn 0.0000 -0.4725 -0.8813
vn -0.0446 -0.9990 0.0030
vn 0.0000 -0.9995 -0.0322
vn 0.0000 0.0322 -0.9995
vn 0.0000 0.4763 0.8793
vn 0.0000 0.9998 0.0220
vn 0.0000 -0.9997 -0.0259
vn 0.0000 -0.6595 0.7517
vn 0.0000 0.0000 -1.0000
vn -0.9733 0.0000 -0.2294
vn 0.9982 0.0000 -0.0595
vn -0.9999 0.0000 0.0107
vn -0.8252 0.0000 0.5649
vn 0.7782 0.0000 -0.6280
vn -0.6470 0.0119 -0.7624
vn 0.9725 0.0000 0.2330
vn 0.6209 -0.0122 0.7838
vn 0.0035 0.9998 0.0190
vn -1.0000 -0.0000 0.0000
vn 0.0446 -0.9990 0.0030
vn 0.9733 0.0000 -0.2294
vn -0.9982 0.0000 -0.0595
vn 0.9999 0.0000 0.0107
vn 0.8252 0.0000 0.5649
vn -0.7782 0.0000 -0.6280
vn 0.6470 0.0119 -0.7624
vn -0.9725 0.0000 0.2330
vn -0.6209 -0.0122 0.7838
vn -0.0035 0.9998 0.0190
vn 0.0000 -0.0322 0.9995
usemtl None
s off
f 24//1 23//1 22//1 19//1
f 47//2 17//2 18//2 48//2
f 2//3 4//3 7//3 8//3
f 17//4 47//4 46//4 16//4
f 4//1 2//1 18//1 15//1
f 32//1 48//1 18//1 2//1
f 34//5 37//5 7//5 4//5
f 12//6 42//6 40//6 10//6
f 8//3 7//3 9//3 10//3
f 14//7 29//7 28//7 13//7
f 10//3 9//3 11//3 12//3
f 43//8 44//8 14//8 13//8
f 14//9 44//9 42//9 12//9
f 39//10 41//10 11//10 9//10
f 37//11 39//11 9//11 7//11
f 10//12 40//12 38//12 8//12
f 8//13 38//13 32//13 2//13
f 15//1 45//1 34//1 4//1
f 16//14 46//14 45//14 15//14
f 5//3 3//3 16//3 15//3
f 3//3 1//3 17//3 16//3
f 6//3 5//3 15//3 18//3
f 1//3 6//3 18//3 17//3
f 22//15 21//15 29//15 30//15
f 25//16 24//16 19//16 20//16
f 23//17 26//17 21//17 22//17
f 26//4 25//4 20//4 21//4
f 1//4 3//4 25//4 26//4
f 6//18 1//18 26//18 23//18
f 3//19 5//19 24//19 25//19
f 5//1 6//1 23//1 24//1
f 12//20 30//20 29//20 14//20
f 21//4 20//4 28//4 29//4
f 19//1 22//1 30//1 27//1
f 20//21 19//21 27//21 28//21
f 13//22 28//22 27//22 11//22
f 11//23 27//23 30//23 12//23
f 54//1 49//1 52//1 53//1
f 32//24 38//24 37//24 34//24
f 34//1 45//1 48//1 32//1
f 38//24 40//24 39//24 37//24
f 44//25 43//25 58//25 59//25
f 40//24 42//24 41//24 39//24
f 35//24 45//24 46//24 33//24
f 33//24 46//24 47//24 31//24
f 36//24 48//24 45//24 35//24
f 31//24 47//24 48//24 36//24
f 52//26 60//26 59//26 51//26
f 55//27 50//27 49//27 54//27
f 53//28 52//28 51//28 56//28
f 56//4 51//4 50//4 55//4
f 31//4 56//4 55//4 33//4
f 36//29 53//29 56//29 31//29
f 33//30 55//30 54//30 35//30
f 35//1 54//1 53//1 36//1
f 42//31 44//31 59//31 60//31
f 51//4 59//4 58//4 50//4
f 49//1 57//1 60//1 52//1
f 50//32 58//32 57//32 49//32
f 43//33 41//33 57//33 58//33
f 41//34 42//34 60//34 57//34
f 41//35 43//35 13//35 11//35
